<svg xmlns="http://www.w3.org/2000/svg" viewBox="0 0 319.88 149.19"><defs><style>.cls-1{fill:#ff9100;}.cls-2{fill:#fff;}</style></defs><g id="Layer_2" data-name="Layer 2"><g id="Layer_1-2" data-name="Layer 1"><path class="cls-1" d="M73.72,149.19a39.93,39.93,0,0,1-20.67-5.69,35.83,35.83,0,0,1-9.81,3.12C27.73,149.15,8.07,141.93,2,125.49c-4.32-11.71-1.5-25.22,6.86-32.85,6.44-5.89,16.62-8,24.19-5.13,9.8,3.76,10.46,14.32,10.86,20.63,0,.89.12,1.76.2,2.58a30.85,30.85,0,0,0,9.56,19.85c9-6.9,13.85-18,15.43-22.24,3.35-8.89,4-18.11,1.76-25.95-3-10.63-11.73-17.18-21-24.13L37,48.53a16.22,16.22,0,0,1-2.75-23.3l19-22.9a6.42,6.42,0,0,1,8.76-1.08c2.93,2.17,6.48,4.62,10.24,7.21,27.08,18.66,72.39,49.9,58.46,94.31C124.51,122.31,109,138.9,90.16,146a51,51,0,0,1-5.62,1.77A44,44,0,0,1,73.72,149.19ZM63.3,136.51a30.94,30.94,0,0,0,18.59.85,43.26,43.26,0,0,0,4.44-1.4c15.82-6,28.85-20,34-36.42,11.55-36.82-28.06-64.13-54.28-82.2-2.51-1.73-4.94-3.4-7.17-5L42.54,32.11a5.43,5.43,0,0,0,.92,7.8l12.93,9.72c10.25,7.71,20.86,15.69,24.86,29.82,2.84,10,2.11,21.65-2,32.69C75.42,122.18,69.9,130.51,63.3,136.51ZM25.81,97a15.17,15.17,0,0,0-9.67,3.59c-5.8,5.3-6.41,14.66-4,21.16,3.95,10.72,18.37,16,29.38,14.21.69-.11,1.36-.25,2-.41a42.49,42.49,0,0,1-10.14-23.77q-.15-1.44-.24-3c-.42-6.75-1.13-10.15-4-11.24A9.33,9.33,0,0,0,25.81,97Z"/><path class="cls-2" d="M159.38,85.92a1.59,1.59,0,0,1,.92-.28,1.2,1.2,0,0,1,.72.44,6.63,6.63,0,0,0,.46.55c.26.28.47.53.63.74a8,8,0,0,0,3.53,2.81,5.46,5.46,0,0,0,2.69.56q4.06,0,5.58-3t1.53-9.38V47.25a1,1,0,0,1,1.13-1.17h10.88c.75,0,1.12.39,1.12,1.17V77.53q0,12.81-4.33,18.76-4.59,6.38-15,6.38a20.44,20.44,0,0,1-12.74-4,15.73,15.73,0,0,1-3.37-3.38l-2-2.61a1.1,1.1,0,0,1,.2-1.64Z"/><path class="cls-2" d="M235.83,58.7a.87.87,0,0,1,.75.36.75.75,0,0,1,.1.76l-18.84,44.5a20,20,0,0,1-4.94,7.19,11,11,0,0,1-5.18,2.29,21.23,21.23,0,0,1-6.75-.24,11.87,11.87,0,0,1-5.1-1.81,1,1,0,0,1-.32-1.33l3.46-8.63c.26-.72.71-1,1.32-.68a5.54,5.54,0,0,0,3.09.52,3.61,3.61,0,0,0,3.38-2.41l2.33-5-13.9-34.38a.77.77,0,0,1,.08-.76.81.81,0,0,1,.73-.36h12.08a1.49,1.49,0,0,1,1.57,1.12l5.9,18.35,6.59-18.35a1.49,1.49,0,0,1,1.57-1.12Z"/><path class="cls-2" d="M267,58a20,20,0,0,1,5,.69,1.15,1.15,0,0,1,.92,1.2l-1.4,10.48c-.08.73-.52,1.05-1.33,1a7.16,7.16,0,0,0-3-.08,11,11,0,0,0-7.59,3.29q-3.37,3.5-3.37,10.28v16a1,1,0,0,1-1.17,1.17H244.14a1,1,0,0,1-1.17-1.17v-41c0-.75.39-1.12,1.17-1.12h6.18a5.86,5.86,0,0,1,5.91,5.9v.68a11.63,11.63,0,0,1,3.61-4.86A11,11,0,0,1,267,58Z"/><path class="cls-2" d="M297.91,102.75a21,21,0,0,1-15.54-6.62,22.62,22.62,0,0,1-6.43-15.75,22,22,0,0,1,1.71-8.55,22.22,22.22,0,0,1,4.72-7.15A21.05,21.05,0,0,1,297.91,58a20.56,20.56,0,0,1,8.41,1.79,23.38,23.38,0,0,1,7.13,4.88,22.22,22.22,0,0,1,4.72,7.15,22.31,22.31,0,0,1,0,17.13,22.3,22.3,0,0,1-4.72,7.17,23.17,23.17,0,0,1-7.11,4.86A20.85,20.85,0,0,1,297.91,102.75Zm0-31.24a8.14,8.14,0,0,0-6.11,2.65,8.47,8.47,0,0,0-2.53,6.22,8.3,8.3,0,0,0,2.53,6.27,8.36,8.36,0,0,0,12.21,0,8.51,8.51,0,0,0,2.53-6.27A8.69,8.69,0,0,0,304,74.16,8.11,8.11,0,0,0,297.91,71.51Z"/></g></g></svg>